<svg id="Layer_1" data-name="Layer 1" xmlns="http://www.w3.org/2000/svg" viewBox="0 0 461.42 634.23"><defs><style>.cls-1{fill:#603601;}</style></defs><path class="cls-1" d="M256.8,4.4a28.89,28.89,0,0,0-7.2,3c-2.5,1.6-2.5,1.8-1.2,4.5,2,3.9,8,8.9,13.5,11.4,6.5,2.9,17.9,2.8,24.3-.2,2.6-1.2,5-2.5,5.2-3,1-1.5-5.4-9.1-10-12.1A30.35,30.35,0,0,0,256.8,4.4Z" transform="translate(-2 -3.27)"/><path class="cls-1" d="M193.4,9c-12,2.4-21.1,10.7-24.2,22.2-1.2,4.5-.6,4.8,8.1,4.8,10.7-.1,18.5-4.1,24.1-12.5,3.8-5.6,6.3-12.3,5-13.5C204.9,8.7,197.8,8.2,193.4,9Z" transform="translate(-2 -3.27)"/><path class="cls-1" d="M301,22.6c-3,1.8-5.5,3.7-5.5,4.1s.7,2.8,1.4,5.3c2.9,9.8-2.1,30.2-12,49a357.21,357.21,0,0,1-21.7,33.9l-1.9,2.3-13.4-6.3c-49.7-23.6-82.4-50.2-89-72.5-.7-2.4-1.8-4.4-2.4-4.3s-3.9.6-7.5,1.3c-6,1.1-6.5,1.4-6.1,3.6,1.2,8.7,9.8,23.3,20.1,34.4,15.4,16.4,45.4,36.3,77.8,51.6,5,2.4,9.2,4.7,9.2,5.1s-6.1,6.6-13.5,13.7c-14.7,14.2-22,22.5-29.2,33.6-5.1,7.8-14,25.3-16.8,32.9-1.4,3.7-2.2,4.7-3.6,4.4-3-.8-41.9-24.4-51.8-31.5-21.9-15.5-37-31.8-46.5-50.2-5.3-10.3-9.9-23.2-11.2-31.8l-.7-4.4-5.6.7c-9.2,1.1-10.1,1.5-9.6,3.9,6.8,32.3,18.2,53.5,40.1,74.6,14.9,14.3,27.6,23.2,64.4,45,50.2,29.7,62.7,40.8,67.4,60,4.9,20.4,4.9,55.9,0,99.7-1,8.4-2,15.3-2.3,15.3s-2.9-2.9-5.6-6.5c-7.1-9.4-17.7-18.8-30.9-27.4-9.1-5.9-38-20.7-47.4-24.2-5.9-2.2-7.8-3.8-25.3-21.6-31.6-32.4-53.1-57.5-61.1-71.8A147,147,0,0,1,47.6,212a75.37,75.37,0,0,0-2.7-9.4c-.5-.6-13.9,1-14.6,1.7s1.7,11.4,4.9,21.2c8.7,26.4,24.2,48.2,62.2,88l15.3,16-21.6.1c-16.8.1-24.8.6-36.1,2.3-13.9,2.1-35.9,6.6-36.8,7.6-.6.6,3,13.5,3.9,14.1.5.3,5.9-.6,12.1-2,24-5.3,31.8-6.1,57.8-6.1,33.6.1,40.2,1.7,71,17,20.4,10.2,31.8,18,43,29.4,10.4,10.4,15.9,19.4,19.8,32.2,6.4,20.8,4.1,50.7-4.6,61.1-3.5,4.1-7.9,5.8-14.9,5.8-10.6,0-19.3-2.7-50.4-15.4-10.2-4.1-21.9-8.4-26-9.5-25.5-6.9-61.1-4.9-96.8,5.4C20.6,475.1,2,482,2,483.1a59.12,59.12,0,0,0,3,7.2l3,6.6,6.2-2.5c11.6-4.5,30.3-10.2,41.2-12.4,5.9-1.2,10.9-2,11.1-1.8.6.6-5.2,17.3-7.8,22.4-5.4,10.5-16.5,23.7-26.6,31.5l-3.4,2.7,4,6.6,4,6.7,5.9-4.4c17.6-13.1,32.2-35.1,38.1-57.6L83.3,478l5.1-.2a197.08,197.08,0,0,1,28.6,1.3c6.3,1,20.7,5.4,22.3,6.8.4.4-1.1,1.3-3.4,2-5.8,1.8-18.1,7.5-25.3,11.8C91.9,511,76.7,525.5,67,541.4c-4.7,7.8-10.4,21.2-9.7,22.9.4,1.1,13.5,5.4,14,4.6.2-.2,1.4-3.1,2.7-6.4,4.4-11.2,10.2-19.7,20.5-30.1,17.8-18.1,40.8-30.4,64.2-34.3,6.7-1.2,7.5-1.1,14.2,1.3,13.6,4.9,23.1,6.9,33.1,6.9,5.2,0,10.7-.5,12.3-1.1s2.7-.8,2.7-.3c0,1.7-8.9,12.9-12.2,15.4-5.4,4.1-9.1,5.5-19.4,7.8-27.5,5.9-57.9,22.1-78.6,41.7-8,7.7-18.9,20.4-18.8,22.1.1.7,11.8,8.1,12.8,8.1.4-.1,2.5-2.6,4.7-5.6,4.7-6.7,15.4-17,25-24.1A83,83,0,0,1,142,565c1.4,0-5,50.5-6.6,53.2-.3.4.8,1,2.3,1.4s4.4,1,6.3,1.5c6.7,1.7,6.5,2,8.8-11.9a359.17,359.17,0,0,0,4.7-37.2c1.2-17.3.8-16.4,7.5-19.4,8.9-4,16.3-6.4,28-9.2,13.6-3.2,21.6-7.1,29.6-14.6l6.4-6v13.3c0,7.4-.4,16.1-1,19.4-1.1,6.6-2.1,7.8-23.4,26.9-16.3,14.7-28.9,33.7-30.2,46l-.7,5.9,6.3-.6c3.5-.4,7.1-.7,8.1-.7,1.4,0,1.9-.7,1.9-2.8.1-9.1,12.8-25.7,32.9-43,8-6.9,13.8-12.8,16.1-16.4l3.8-5.7,3.5,5.3c12.2,18.4,20.1,44.6,18.2,60.3l-.6,5.2,3.3.5a75.53,75.53,0,0,0,7.8.8l4.5.3-.1-14c-.1-11.6-.6-15.7-2.7-23.8-3.4-12.7-10.5-27.5-20.5-42.5-6.7-10.2-8.1-13-9-18.4-1.3-7.5-2.5-22.8-1.9-22.8.3,0,3.4,3,6.9,6.6,6.7,7,18.1,15.1,28.8,20.4,23.4,11.7,41.9,34.8,53.1,66.2,1.3,3.8,3,6.8,3.7,6.8,3,0,13.2-3.6,13.2-4.7,0-2-5-15.2-9.1-24s-12.8-22.9-18.7-30.1c-4-4.9-4-4.9,8.6-2.2,23.4,4.9,41.7,13.1,56.3,25.2l4.7,3.8,5.1-5.8,5-5.9-2.7-2.5c-8.5-7.9-23.6-16.7-37.7-22.1-15.6-6-43-11.7-56.4-11.7-4.4,0-6.8-.9-17.4-6.6-14.9-8.1-20.1-11.8-27.1-19.6-4.9-5.3-11.3-16.4-13.1-22.6-.6-2.1-.3-2,6,1.4,10.3,5.7,18.5,7.4,34.8,7.4,17.2,0,29.4-1.8,52.4-7.5,9.8-2.5,18.3-4.5,18.9-4.5s2.5,3.4,4.4,7.6c9.3,21.2,33,48.2,54.1,61.8l2.6,1.7,4.2-6.7c2.3-3.7,4.1-6.7,3.9-6.8-20.2-13-39.1-33.5-49.2-53.4-4.2-8.3-4.3-8.2,8.7-8.2,20.9,0,40.5,4.2,56.6,12.1,5.3,2.6,9.8,4.6,10.1,4.4s2.3-2.9,4.5-6c4.6-6.7,4.9-6.2-7.5-12.5-17.1-8.6-38.6-13.2-62.5-13.2-17.8,0-23.7.9-45.5,6.7-64.1,17.1-93,10.9-98.9-21.1-4.5-24.2,4.5-55.8,23.6-82.8,7.8-11,29.7-32.6,41.3-40.9,12.7-9,27.5-16.2,37.2-18.2,10.1-2,36.8-2,54.8,0,14.2,1.6,41,5.9,47,7.5a22.7,22.7,0,0,0,4.6,1c1.3,0,5-13.7,4-14.7s-28.5-6.1-46.1-8.4a297.17,297.17,0,0,0-36.7-2.3c-14.7-.1-19.8-.4-19.8-1.3,0-.7.9-6,2.1-11.9,4.1-21.2,12-40.6,21.5-52.7,2.3-3,10-10.6,17-16.9,13.4-12,22.4-21.1,31.2-31.7,6.3-7.5,13.6-18.1,12.9-18.7a70.86,70.86,0,0,0-6.8-3.9l-6.2-3.3-4.7,6.6c-7.6,10.8-20.3,24.4-34.5,37.2-16.2,14.4-19.9,18.4-26,27.8-11.3,17.6-16.1,32-22.3,67.6-.6,3.6-1.1,4-5.7,5.6-11.2,3.8-28,13.8-41.9,25-10.3,8.3-28.1,27.1-35.5,37.5l-6.4,9,.7-9.5c3.1-47.9.7-76.7-7.9-94.9-4.4-9.3-14.1-19.1-30-30.6-6-4.3-11.1-8-11.3-8.1-.6-.4,4.9-13.6,9.8-23.4,8.6-17.2,13.9-24.1,32.9-43,26.9-26.8,43.9-49.3,56.1-74.5,8.7-18,11.2-26.6,11.7-41,.4-10.1.2-12.9-1.4-17.5-1.1-3-2.6-5.6-3.4-5.7S304,20.7,301,22.6Z" transform="translate(-2 -3.27)"/><path class="cls-1" d="M101.4,33.3A45.92,45.92,0,0,0,92.6,39l-3.7,3.3L91,44.5c1.2,1.3,4.9,3.5,8.2,5,5.4,2.4,7,2.7,13.7,2.3,8.3-.5,13.5-2.6,19.6-7.9,3.5-3.1,3.5-3.2,1.8-5.1C127.8,31.6,110.9,28.8,101.4,33.3Z" transform="translate(-2 -3.27)"/><path class="cls-1" d="M330.7,34.4c-5,1.8-11.2,6.2-13.3,9.4-1.6,2.4-1.6,2.6.2,4A31.41,31.41,0,0,0,336.1,54c8.9,0,15-2.3,21.1-7.9l5.1-4.7-3.4-2.7C351.7,33.2,339.3,31.4,330.7,34.4Z" transform="translate(-2 -3.27)"/><path class="cls-1" d="M85,58.9c-9.7,4-16.9,13.5-18.5,24.3-1,6.7-.1,8.8,3.9,8.8,5.4,0,15.2-5.6,19.5-11,4.1-5.2,7.5-15.3,6.9-20.5-.3-2.6-.7-3-3.8-3.2A23.14,23.14,0,0,0,85,58.9Z" transform="translate(-2 -3.27)"/><path class="cls-1" d="M221.4,58.8C215.5,60.9,211,63.6,211,65c0,.6,2,3,4.3,5.4,8.9,8.8,24.2,11.2,35.2,5.5,2.8-1.5,5.1-3.3,5.3-4.1s-1.4-3.2-3.5-5.3C244.2,58.5,231.2,55.3,221.4,58.8Z" transform="translate(-2 -3.27)"/><path class="cls-1" d="M331.4,82.9c-5.3,2.5-13.4,9.9-13.4,12.2,0,.4,2.6,2,5.7,3.6,12,5.8,27.8,2.7,35.8-7.1,1.9-2.4,3.5-4.8,3.5-5.3s-2.6-2.2-5.9-3.7A30,30,0,0,0,331.4,82.9Z" transform="translate(-2 -3.27)"/><path class="cls-1" d="M406.9,97.2c-.8,1.8-1.4,6.4-1.3,10.3,0,7.5,2.6,14,7.8,20.2,2.8,3.3,12.1,8.7,13.6,7.8s3-7.4,3-12.6a29.55,29.55,0,0,0-6.7-18.8C419.6,99.7,411.7,94,409.4,94,408.8,94,407.6,95.5,406.9,97.2Z" transform="translate(-2 -3.27)"/><path class="cls-1" d="M121.5,107.1a30.29,30.29,0,0,0-16.2,24.4,29.63,29.63,0,0,0,.7,9.9c1,3.1,1.5,3.6,3.3,3a32.46,32.46,0,0,0,18.8-15.6c2.4-4.6,3.6-14.5,2.5-20.2C129.8,104.3,127.5,103.9,121.5,107.1Z" transform="translate(-2 -3.27)"/><path class="cls-1" d="M180.3,117.4c.3,4.6,1.3,8.9,2.7,11.5,4.7,9.3,13.5,15.8,22.8,16.9l4.5.5-.5-7.5c-.4-6.1-1.1-8.6-3.8-13.2a31,31,0,0,0-17.4-14.1C179.7,108.8,179.6,108.9,180.3,117.4Z" transform="translate(-2 -3.27)"/><path class="cls-1" d="M300.2,123.7c-3.3.7-3.6,2.5-1.3,7.2,5.1,9.8,14,16,24.5,16.8,7.2.6,14.6-1.1,14.6-3.3,0-4.9-8.3-15-15.4-18.6C318.5,123.7,305.7,122.5,300.2,123.7Z" transform="translate(-2 -3.27)"/><path class="cls-1" d="M35,137.3a34.31,34.31,0,0,0-13.5,9.5c-3.2,3.9-3.3,3.8,5.4,7.9,11.1,5.3,25,2.5,34-6.7,4.8-5,4.5-6-3.4-9.6C51.8,135.7,41,135.2,35,137.3Z" transform="translate(-2 -3.27)"/><path class="cls-1" d="M360.4,143.7c2,14.8,14.7,26.3,28.9,26.3H394v-4.3c0-13.4-14.6-26.7-29.2-26.7h-5.1Z" transform="translate(-2 -3.27)"/><path class="cls-1" d="M150.3,147.6c-7,2.5-17.3,13-17.3,17.6,0,2.5,6,4.3,14,4.3,5.9,0,8.5-.5,12.5-2.4,8-3.9,16.6-13.9,15.1-17.6C173.3,146.1,158,144.9,150.3,147.6Z" transform="translate(-2 -3.27)"/><path class="cls-1" d="M263,160.3a31.13,31.13,0,0,0-14.3,8.5l-2.8,2.9,4.3,3.2a30.48,30.48,0,0,0,38.6-2.2c1.7-1.7,3.2-3.6,3.2-4.1,0-1.4-5.3-5-10.2-7C276.6,159.4,268.2,158.8,263,160.3Z" transform="translate(-2 -3.27)"/><path class="cls-1" d="M73.5,173.5c-7.5,3.3-14.6,13.7-16,23.6-.7,4.7,1.8,16.3,3.7,17.5,1.2.8,8.7-3.8,12-7.3a36.54,36.54,0,0,0,5.4-8.7c2.3-5.1,2.6-6.7,2.2-13.5s-2.2-13.2-3.7-13A31.2,31.2,0,0,0,73.5,173.5Z" transform="translate(-2 -3.27)"/><path class="cls-1" d="M322.3,182c-1.8.6-3.5,1.5-3.8,2-.9,1.4,4.1,10.5,7.7,14,5.6,5.4,12.3,8,20.5,8s12.3-1.2,12.3-3.5c0-4.9-8.2-14.5-15.3-18.1C338.2,181.6,327.6,180.4,322.3,182Z" transform="translate(-2 -3.27)"/><path class="cls-1" d="M426,196.9a36.79,36.79,0,0,0-13.4,8c-2.9,3-2.9,3.1-1,5.2,6.1,6.9,22,9.1,32,4.5a45.59,45.59,0,0,0,8.8-5.6l3.7-3.3-2.1-2.2c-3.8-4.1-10.9-6.8-18.4-7.1C431.7,196.2,427.4,196.4,426,196.9Z" transform="translate(-2 -3.27)"/><path class="cls-1" d="M244.2,219c-5.9,3-14.2,11.3-14.2,14.1,0,.6,2.1,2,4.8,3.2,10.2,4.7,24,2.1,32.5-6.1,3.5-3.4,7.3-9,6.5-9.7-2.6-2.2-8.6-3.9-15.3-4.3C251.1,215.9,250,216.1,244.2,219Z" transform="translate(-2 -3.27)"/><path class="cls-1" d="M92.5,229.7a39.75,39.75,0,0,0-8.9,4.8c-3.6,2.8-8.6,9.3-8.6,11.4,0,1.6,10.8,5.1,15.9,5.1a30.44,30.44,0,0,0,25.4-13.2A24.13,24.13,0,0,0,119,233c0-1.6-8.7-4.3-15-4.7A29.56,29.56,0,0,0,92.5,229.7Z" transform="translate(-2 -3.27)"/><path class="cls-1" d="M300,235.7c-4,1.4-10,4.6-10,5.3,0,2.3,10.4,11.9,15.1,14,6.3,2.7,16.3,2.9,22.8.6,6.7-2.5,7.5-3.4,5.5-6.5-2.9-4.7-9.6-10-15.1-12.1C313.2,235.1,303.6,234.4,300,235.7Z" transform="translate(-2 -3.27)"/><path class="cls-1" d="M382.9,243.2c-.7,1.3-1.3,5.5-1.3,9.4,0,6.3.4,8,3.4,14,2.8,5.5,4.6,7.6,9,10.6,3,2,6.7,4,8.1,4.3,2.3.6,2.8.2,3.8-2.6,1.5-4.4,1.4-11.6-.4-17.5a29.2,29.2,0,0,0-14.2-17.2,48.68,48.68,0,0,0-6.7-3.2C384.3,241,383.5,242,382.9,243.2Z" transform="translate(-2 -3.27)"/><path class="cls-1" d="M453.2,248.5c-4.3,1.3-9.5,4.8-13.3,8.8-5.2,5.5-8.4,16.1-7.4,23.9.7,4.7.7,4.7,3.8,4.1,8.1-1.5,16.8-8.2,20.7-16,2.1-4,2.5-6.2,2.5-13.2,0-4.8-.4-8.5-1-8.7A18.25,18.25,0,0,0,453.2,248.5Z" transform="translate(-2 -3.27)"/><path class="cls-1" d="M21.1,251.1C10,256.6,2.5,270.5,4.6,281.5c.8,4.2,2,4.4,9.8,1.4,4-1.4,6.9-3.5,10.4-7.4,5.9-6.4,8.2-12.4,8.2-21.2,0-6.3,0-6.3-2.8-6.3C28.6,248,24.5,249.4,21.1,251.1Z" transform="translate(-2 -3.27)"/><path class="cls-1" d="M184.5,256.3c-6.2,2.1-12.6,6.8-15.7,11.6-3.3,5.3-2.8,6.4,4.5,8.6,9.9,2.9,19.1,1.3,27.6-4.9,4.3-3.2,9.1-9.2,9.1-11.5,0-.4-1.7-1.5-3.7-2.6C201.5,255.2,189.8,254.6,184.5,256.3Z" transform="translate(-2 -3.27)"/><path class="cls-1" d="M139.4,263.6c-6.1,2.2-11.9,7.7-15.3,14.6-2.6,5.2-3.1,7.2-3,13.2a65.48,65.48,0,0,0,.7,9.2l.7,2.2,5.4-2c13.2-5,21.8-21.3,18.2-34.6C144.8,261.5,145,261.6,139.4,263.6Z" transform="translate(-2 -3.27)"/><path class="cls-1" d="M277.9,274.4a32.69,32.69,0,0,0-19.1,17.3c-2.7,6.2-2.1,9.7,1.7,10.1a30.47,30.47,0,0,0,32.1-21.5c1.3-4.6,1.4-5.7.3-6.4C290.8,272.6,282,272.9,277.9,274.4Z" transform="translate(-2 -3.27)"/><path class="cls-1" d="M50,280.9c-9.1,2.8-17.6,10.7-20.4,18.8A42.52,42.52,0,0,0,28,311.2v6.7l3.3-.6C46.2,314.4,56,302.5,56,287.2,56,279.4,55.8,279.2,50,280.9Z" transform="translate(-2 -3.27)"/><path class="cls-1" d="M172,302.6a29.17,29.17,0,0,0-17.5,15.9l-2.5,5,3.3,1.2c4.2,1.5,14,1.6,18.7.2,7.8-2.3,17.9-12.3,19.5-19.1.6-2.4.3-2.8-3.2-3.7A34.48,34.48,0,0,0,172,302.6Z" transform="translate(-2 -3.27)"/><path class="cls-1" d="M382.6,324.1c-7.9,5.2-13.6,15.7-13.6,24.9,0,4.3,2.6,13.6,4.1,14.5s9.4-4.1,12.8-8.2c4.1-4.9,7.1-13.1,7.1-19.2,0-5.7-2.8-15.1-4.5-15.1C387.9,321,385.2,322.4,382.6,324.1Z" transform="translate(-2 -3.27)"/><path class="cls-1" d="M425.2,331.3c1.2,15,12,26.8,26,28.4l5.1.6-.5-6.6c-1.3-15.2-11.8-26.7-26-28.4l-5.1-.6Z" transform="translate(-2 -3.27)"/><path class="cls-1" d="M322,336.2c-2.6,4.4-4.3,13-3.5,18.1,1.4,8.9,7,17.7,14.2,22.4,2.2,1.5,2.5,1.4,3.8-.3,2.1-3,4.5-11.2,4.5-15.8,0-9.7-6.4-21.6-13.8-25.9l-3.2-1.8Z" transform="translate(-2 -3.27)"/><path class="cls-1" d="M29.9,362.5c-12,6.2-18.5,21.5-14.9,34.7,1.4,4.8,2.2,5.3,6.4,3.3a31.2,31.2,0,0,0,17.1-24.6c.6-5.6-1.2-15-3-15.5C35,360.2,32.4,361.2,29.9,362.5Z" transform="translate(-2 -3.27)"/><path class="cls-1" d="M68.7,362.5c-1.7,4.2,1.1,13.9,5.9,20.6a29.28,29.28,0,0,0,17.1,11.4c8.8,2.3,8.6,2.4,8.1-4.9-1.2-14.7-11.9-26.3-26.1-28.2C70.1,360.9,69.2,361.1,68.7,362.5Z" transform="translate(-2 -3.27)"/><path class="cls-1" d="M283,368.8c-2.8,5.7-3.7,16.4-2,21.8,2.3,7.5,11.5,18.4,15.5,18.4.7,0,2.2-2.3,3.5-5.1,5.5-12.9.9-29-10.5-36.9l-4.3-3Z" transform="translate(-2 -3.27)"/><path class="cls-1" d="M132.6,367.2c-2.4,9.2,1.2,21.7,8.3,28.8,4.7,4.7,12.8,8.7,15.5,7.7,2-.8,2.9-9.3,1.6-15a31.57,31.57,0,0,0-16.5-21.6C136.3,364.3,133.4,364.4,132.6,367.2Z" transform="translate(-2 -3.27)"/></svg>